<svg width="30" height="30" viewBox="0 0 30 30" fill="none" xmlns="http://www.w3.org/2000/svg">
<path d="M21.7209 0H8.27874C3.71384 0 0 3.71402 0 8.27892V21.7211C0 26.2862 3.71384 30 8.27874 30H21.7209C26.2862 30 30 26.286 30 21.7211V8.27892C30.0002 3.71402 26.2862 0 21.7209 0ZM27.3384 21.7211C27.3384 24.8185 24.8185 27.3383 21.7211 27.3383H8.27874C5.18153 27.3384 2.66175 24.8185 2.66175 21.7211V8.27892C2.66175 5.18171 5.18153 2.66175 8.27874 2.66175H21.7209C24.8183 2.66175 27.3383 5.18171 27.3383 8.27892V21.7211H27.3384Z" fill="#21243D"/>
</svg>
